# Blender 5.2.1 LTS
# www.blender.org
mtllib spruce.mtl
o Cube
v -0.477530 2.050629 -1.783359
v -0.692333 2.050629 -2.810525
v 0.334096 2.090378 -3.025174
v 0.548899 2.090378 -1.998008
v -0.616661 5.798519 -1.754689
v -0.832847 5.839673 -2.780739
v 0.193542 5.880600 -2.995356
v 0.409729 5.839446 -1.969305
v -0.631519 9.657434 -1.541269
v -0.807249 9.661882 -2.379457
v 0.030612 9.687156 -2.554984
v 0.206341 9.682707 -1.716796
v -0.722277 14.250370 -1.918624
v -0.865018 14.260412 -2.609199
v -0.175151 14.228985 -2.752252
v -0.032409 14.218944 -2.061677
v -0.354459 18.114979 -1.641526
v -0.452643 18.193180 -2.134786
v 0.046334 18.229725 -2.228314
v 0.144518 18.151524 -1.735054
v -0.342736 16.939915 -1.780066
v -0.459855 17.015770 -2.370925
v 0.135308 17.004910 -2.490292
v 0.252427 16.929054 -1.899433
v -0.512490 2.992893 -1.776048
v -0.727293 2.992893 -2.803214
v 0.299136 3.032642 -3.017863
v 0.513939 3.032642 -1.990697
v -0.547451 3.935157 -1.768737
v -0.762254 3.935157 -2.795903
v 0.264175 3.974906 -3.010552
v 0.478978 3.974906 -1.983386
v -0.582412 4.877421 -1.761426
v -0.797215 4.877421 -2.788592
v 0.229214 4.917171 -3.003241
v 0.444017 4.917171 -1.976075
v -0.619461 6.668836 -1.706667
v -0.827479 6.747571 -2.686374
v 0.155114 6.787879 -2.891766
v 0.363132 6.709144 -1.912058
v -0.622410 7.450207 -1.663355
v -0.822306 7.525869 -2.604814
v 0.121925 7.564603 -2.802186
v 0.321821 7.488941 -1.860728
v -0.625219 8.194799 -1.622082
v -0.817377 8.267530 -2.527093
v 0.090298 8.304765 -2.716824
v 0.282456 8.232033 -1.811813
v -0.627943 8.916467 -1.582080
v -0.812600 8.986360 -2.451765
v 0.059645 9.022141 -2.634090
v 0.244302 8.952248 -1.764405
v -0.650099 10.584269 -1.615722
v -0.817947 10.528008 -2.423459
v -0.008696 10.543631 -2.592710
v 0.159153 10.599891 -1.784973
v -0.665520 11.369454 -1.680520
v -0.828089 11.314965 -2.462850
v -0.044292 11.330096 -2.626777
v 0.118277 11.384585 -1.844447
v -0.680243 12.119131 -1.742387
v -0.837771 12.066331 -2.500459
v -0.078278 12.080992 -2.659303
v 0.079250 12.133792 -1.901231
v -0.694531 12.846636 -1.802425
v -0.847167 12.795474 -2.536956
v -0.111259 12.809681 -2.690868
v 0.041377 12.860842 -1.956337
v -0.708503 13.558089 -1.861138
v -0.856356 13.508532 -2.572648
v -0.143512 13.522291 -2.721735
v 0.004340 13.571849 -2.010226
v -0.347014 17.345125 -1.732873
v -0.457232 17.432911 -2.286591
v 0.102903 17.473934 -2.391583
v 0.213122 17.386150 -1.837865
v -0.350815 17.738207 -1.686232
v -0.454889 17.821098 -2.209081
v 0.074020 17.859835 -2.308219
v 0.178093 17.776943 -1.785370
v -0.637139 14.854938 -1.887050
v -0.770609 14.920658 -2.553950
v -0.105938 14.847025 -2.694231
v 0.027533 14.781303 -2.027332
v -0.559501 15.408565 -1.858216
v -0.689088 15.472373 -2.505708
v -0.043759 15.400883 -2.641907
v 0.085827 15.337074 -1.994415
v -0.484643 15.942369 -1.830415
v -0.610485 16.004333 -2.459194
v 0.016193 15.934909 -2.591456
v 0.142035 15.872944 -1.962677
v -0.411536 16.463692 -1.803263
v -0.533720 16.523855 -2.413767
v 0.074744 16.456448 -2.542185
v 0.196928 16.396284 -1.931682
vn 0.0371 -0.9993 -0.0078
vn -0.0413 0.9855 0.1645
vn -0.9781 -0.0379 0.2045
vn -0.2047 -0.0000 -0.9788
vn 0.9781 0.0379 -0.2045
vn 0.2047 -0.0000 0.9788
vn -0.9781 -0.0379 0.2046
vn -0.2047 0.0004 -0.9788
vn 0.9781 0.0379 -0.2046
vn 0.2047 0.0004 0.9788
vn -0.9784 -0.0151 0.2060
vn -0.2075 0.1023 -0.9729
vn 0.9771 0.0651 -0.2028
vn 0.2064 -0.0532 0.9770
vn -0.9783 -0.0151 0.2065
vn -0.2076 0.1033 -0.9727
vn 0.9772 0.0651 -0.2022
vn 0.2064 -0.0534 0.9770
vn -0.9785 -0.0152 0.2058
vn -0.2073 0.1062 -0.9725
vn 0.9769 0.0654 -0.2033
vn 0.2063 -0.0529 0.9770
vn -0.9789 -0.0025 0.2044
vn -0.2034 -0.0523 -0.9777
vn 0.9781 0.0354 -0.2053
vn 0.2022 0.0827 0.9758
vn -0.9790 -0.0024 0.2036
vn -0.2035 -0.0516 -0.9777
vn 0.9780 0.0354 -0.2057
vn 0.2024 0.0845 0.9756
vn -0.9792 -0.0020 0.2030
vn -0.2042 -0.0506 -0.9776
vn 0.9783 0.0371 -0.2038
vn 0.2042 0.0870 0.9751
vn -0.9812 -0.0324 0.1903
vn -0.1919 0.1923 -0.9624
vn 0.9780 0.1067 -0.1790
vn 0.1923 -0.1132 0.9748
vn -0.9812 -0.0321 0.1902
vn -0.1944 0.1932 -0.9617
vn 0.9779 0.1114 -0.1770
vn 0.1911 -0.1138 0.9750
vn -0.9710 0.1238 0.2045
vn -0.1952 0.1113 -0.9744
vn 0.9749 -0.0907 -0.2034
vn 0.1982 -0.0798 0.9769
vn -0.9704 0.1253 0.2066
vn -0.1931 0.1137 -0.9746
vn 0.9748 -0.0902 -0.2040
vn 0.1975 -0.0786 0.9771
vn -0.9697 0.1287 0.2077
vn -0.1932 0.1137 -0.9745
vn 0.9749 -0.0888 -0.2042
vn 0.1962 -0.0779 0.9775
s 0
usemtl Material.006
f 1//1 2//1 3//1 4//1
f 20//2 19//2 18//2 17//2
f 25//3 26//3 2//3 1//3
f 26//4 27//4 3//4 2//4
f 27//5 28//5 4//5 3//5
f 28//6 25//6 1//6 4//6
f 29//3 30//3 26//3 25//3
f 30//4 31//4 27//4 26//4
f 31//5 32//5 28//5 27//5
f 32//6 29//6 25//6 28//6
f 33//3 34//3 30//3 29//3
f 34//4 35//4 31//4 30//4
f 35//5 36//5 32//5 31//5
f 36//6 33//6 29//6 32//6
f 5//7 6//7 34//7 33//7
f 6//8 7//8 35//8 34//8
f 7//9 8//9 36//9 35//9
f 8//10 5//10 33//10 36//10
f 37//11 38//11 6//11 5//11
f 38//12 39//12 7//12 6//12
f 39//13 40//13 8//13 7//13
f 40//14 37//14 5//14 8//14
f 41//15 42//15 38//15 37//15
f 42//16 43//16 39//16 38//16
f 43//17 44//17 40//17 39//17
f 44//18 41//18 37//18 40//18
f 45//15 46//15 42//15 41//15
f 46//16 47//16 43//16 42//16
f 47//17 48//17 44//17 43//17
f 48//18 45//18 41//18 44//18
f 49//15 50//15 46//15 45//15
f 50//16 51//16 47//16 46//16
f 51//17 52//17 48//17 47//17
f 52//18 49//18 45//18 48//18
f 9//19 10//19 50//19 49//19
f 10//20 11//20 51//20 50//20
f 11//21 12//21 52//21 51//21
f 12//22 9//22 49//22 52//22
f 53//23 54//23 10//23 9//23
f 54//24 55//24 11//24 10//24
f 55//25 56//25 12//25 11//25
f 56//26 53//26 9//26 12//26
f 57//27 58//27 54//27 53//27
f 58//28 59//28 55//28 54//28
f 59//29 60//29 56//29 55//29
f 60//30 57//30 53//30 56//30
f 61//27 62//27 58//27 57//27
f 62//28 63//28 59//28 58//28
f 63//29 64//29 60//29 59//29
f 64//30 61//30 57//30 60//30
f 65//27 66//27 62//27 61//27
f 66//28 67//28 63//28 62//28
f 67//29 68//29 64//29 63//29
f 68//30 65//30 61//30 64//30
f 69//27 70//27 66//27 65//27
f 70//28 71//28 67//28 66//28
f 71//29 72//29 68//29 67//29
f 72//30 69//30 65//30 68//30
f 13//31 14//31 70//31 69//31
f 14//32 15//32 71//32 70//32
f 15//33 16//33 72//33 71//33
f 16//34 13//34 69//34 72//34
f 73//35 74//35 22//35 21//35
f 74//36 75//36 23//36 22//36
f 75//37 76//37 24//37 23//37
f 76//38 73//38 21//38 24//38
f 77//39 78//39 74//39 73//39
f 78//40 79//40 75//40 74//40
f 79//41 80//41 76//41 75//41
f 80//42 77//42 73//42 76//42
f 17//39 18//39 78//39 77//39
f 18//40 19//40 79//40 78//40
f 19//41 20//41 80//41 79//41
f 20//42 17//42 77//42 80//42
f 81//43 82//43 14//43 13//43
f 82//44 83//44 15//44 14//44
f 83//45 84//45 16//45 15//45
f 84//46 81//46 13//46 16//46
f 85//47 86//47 82//47 81//47
f 86//48 87//48 83//48 82//48
f 87//49 88//49 84//49 83//49
f 88//50 85//50 81//50 84//50
f 89//47 90//47 86//47 85//47
f 90//48 91//48 87//48 86//48
f 91//49 92//49 88//49 87//49
f 92//50 89//50 85//50 88//50
f 93//47 94//47 90//47 89//47
f 94//48 95//48 91//48 90//48
f 95//49 96//49 92//49 91//49
f 96//50 93//50 89//50 92//50
f 21//51 22//51 94//51 93//51
f 22//52 23//52 95//52 94//52
f 23//53 24//53 96//53 95//53
f 24//54 21//54 93//54 96//54
o Cube.001
v 0.335306 6.698728 0.894681
v -3.305095 4.775777 2.626813
v -0.333162 11.938480 -2.478642
v -3.725551 6.710214 -1.816750
vn 0.4275 -0.6356 -0.6429
vt 0.125000 0.500000
vt 0.375000 0.500000
vt 0.375000 0.750000
vt 0.125000 0.750000
s 0
usemtl Material.001
f 98/1/55 100/2/55 99/3/55 97/4/55
o Cube.002
v -3.587441 6.889133 -2.107194
v -4.579866 4.966096 -6.014566
v -0.134722 12.119801 -2.107194
v -0.134722 6.889133 -5.559913
vn 0.5453 -0.6367 0.5453
vt 0.125000 0.500000
vt 0.375000 0.500000
vt 0.375000 0.750000
vt 0.125000 0.750000
s 0
usemtl Material.001
f 102/5/56 104/6/56 103/7/56 101/8/56
o Cube.003
v 3.075518 7.357430 -1.550746
v 3.132268 5.434393 2.480289
v -0.282581 12.588098 -2.353517
v -1.085351 7.357430 1.004583
vn -0.4036 -0.6367 -0.6571
vt 0.125000 0.500000
vt 0.375000 0.500000
vt 0.375000 0.750000
vt 0.125000 0.750000
s 0
usemtl Material.001
f 106/9/57 108/10/57 107/11/57 105/12/57
o Cube.004
v -0.041781 7.167025 -5.382409
v 3.901583 5.244074 -6.220668
v -0.175941 12.406777 -1.946109
v 3.277373 7.178511 -1.801120
vn -0.5652 -0.6356 0.5259
vt 0.125000 0.500000
vt 0.375000 0.500000
vt 0.375000 0.750000
vt 0.125000 0.750000
s 0
usemtl Material.001
f 110/13/58 112/14/58 111/15/58 109/16/58
o Cube.005
v -1.616212 9.933779 -4.174664
v 0.840806 8.088110 -6.460526
v -0.129915 14.634068 -2.034665
v 2.439976 10.046120 -3.142721
vn -0.1879 -0.5691 0.8005
vt 0.125000 0.500000
vt 0.375000 0.500000
vt 0.375000 0.750000
vt 0.125000 0.750000
s 0
usemtl Material.001
f 114/17/59 116/18/59 115/19/59 113/20/59
o Cube.006
v 2.410416 10.222582 -2.882773
v 4.330144 8.834748 0.126738
v -0.396611 14.767023 -2.291118
v 0.599982 10.543323 0.878828
vn -0.6933 -0.6653 -0.2770
vt 0.125000 0.500000
vt 0.375000 0.500000
vt 0.375000 0.750000
vt 0.125000 0.750000
s 0
usemtl Material.001
f 118/21/60 120/22/60 119/23/60 117/24/60
o Cube.007
v -2.647996 10.039709 -0.160772
v -5.174016 8.185402 -2.362899
v -0.174309 14.377082 -2.148098
v -1.764931 9.688593 -4.238406
vn 0.7558 -0.6178 0.2169
vt 0.125000 0.500000
vt 0.375000 0.500000
vt 0.375000 0.750000
vt 0.125000 0.750000
s 0
usemtl Material.001
f 122/25/61 124/26/61 123/27/61 121/28/61
o Cube.008
v 1.574352 9.919745 0.190657
v -0.238456 8.525571 3.262888
v -0.489452 14.206025 -2.309326
v -2.612029 9.910627 0.124935
vn 0.0127 -0.6999 -0.7141
vt 0.125000 0.500000
vt 0.375000 0.500000
vt 0.375000 0.750000
vt 0.125000 0.750000
s 0
usemtl Material.001
f 126/29/62 128/30/62 127/31/62 125/32/62
o Cube.009
v 1.934024 12.380613 -1.004597
v 1.514758 11.196074 1.889468
v -0.431679 15.918335 -2.224313
v -1.278048 12.347144 0.251569
vn -0.2564 -0.6928 -0.6740
vt 0.125000 0.500000
vt 0.375000 0.500000
vt 0.375000 0.750000
vt 0.125000 0.750000
s 0
usemtl Material.001
f 130/33/63 132/34/63 131/35/63 129/36/63
o Cube.010
v -1.395002 12.455537 0.046256
v -4.002838 10.929786 -0.862477
v -0.141584 16.059938 -2.198062
v -1.993421 12.204620 -3.341283
vn 0.7837 -0.6141 -0.0930
vt 0.125000 0.500000
vt 0.375000 0.500000
vt 0.375000 0.750000
vt 0.125000 0.750000
s 0
usemtl Material.001
f 134/37/64 136/38/64 135/39/64 133/40/64
o Cube.011
v 1.611345 12.660020 -3.605502
v 4.018073 11.504822 -1.923925
v -0.356796 16.380886 -2.233891
v 1.404213 12.882584 -0.169801
vn -0.7443 -0.6679 -0.0016
vt 0.125000 0.500000
vt 0.375000 0.500000
vt 0.375000 0.750000
vt 0.125000 0.750000
s 0
usemtl Material.001
f 138/41/65 140/42/65 139/43/65 137/44/65
o Cube.012
v -1.860838 12.407017 -3.336689
v -0.695895 10.920578 -5.864126
v -0.073060 16.270996 -2.122916
v 1.553247 12.516936 -3.814628
vn 0.1313 -0.5783 0.8052
vt 0.125000 0.500000
vt 0.375000 0.500000
vt 0.375000 0.750000
vt 0.125000 0.750000
s 0
usemtl Material.001
f 142/45/66 144/46/66 143/47/66 141/48/66
o Cube.013
v -1.716432 15.360070 -2.354891
v -1.829341 14.292789 -4.188020
v 0.180113 17.649500 -2.140849
v 0.265515 15.004051 -3.511430
vn 0.3078 -0.6229 0.7192
vt 0.125000 0.500000
vt 0.375000 0.500000
vt 0.375000 0.750000
vt 0.125000 0.750000
s 0
usemtl Material.001
f 146/49/67 148/50/67 147/51/67 145/52/67
o Cube.014
v 0.371912 15.085679 -3.398957
v 2.115311 13.969223 -2.923265
v -0.006963 17.761526 -2.141783
v 1.134578 15.171585 -1.207289
vn -0.8047 -0.5122 0.3001
vt 0.125000 0.500000
vt 0.375000 0.500000
vt 0.375000 0.750000
vt 0.125000 0.750000
s 0
usemtl Material.001
f 150/53/68 152/54/68 151/55/68 149/56/68
o Cube.015
v -0.578009 15.245518 -0.360451
v -2.597324 14.598039 -0.236616
v 0.092114 17.520912 -2.165362
v -1.824808 15.243670 -2.319516
vn 0.5593 -0.7490 -0.3552
vt 0.125000 0.500000
vt 0.375000 0.500000
vt 0.375000 0.750000
vt 0.125000 0.750000
s 0
usemtl Material.001
f 154/57/69 156/58/69 155/59/69 153/60/69
o Cube.016
v 1.184542 14.793072 -1.848824
v 1.499964 13.991138 0.092725
v -0.110136 17.465540 -2.105556
v -0.469086 15.153601 -0.258861
vn -0.6166 -0.6047 -0.5041
vt 0.125000 0.500000
vt 0.375000 0.500000
vt 0.375000 0.750000
vt 0.125000 0.750000
s 0
usemtl Material.001
f 158/61/70 160/62/70 159/63/70 157/64/70
o Cube.017
v 0.640914 17.008722 -2.424529
v 1.477899 16.305708 -1.492063
v -0.166140 18.770435 -1.868278
v 0.224552 17.040062 -0.910386
vn -0.7988 -0.5645 -0.2080
vt 0.125000 0.500000
vt 0.375000 0.500000
vt 0.375000 0.750000
vt 0.125000 0.750000
s 0
usemtl Material.001
f 162/65/71 164/66/71 163/67/71 161/68/71
o Cube.018
v 0.127511 17.106714 -0.922820
v -1.017076 16.584568 -0.228885
v -0.067836 18.820753 -1.966036
v -1.269737 17.237831 -1.628138
vn 0.2879 -0.6607 -0.6932
vt 0.125000 0.500000
vt 0.375000 0.500000
vt 0.375000 0.750000
vt 0.125000 0.750000
s 0
usemtl Material.001
f 166/69/72 168/70/72 167/71/72 165/72/72
o Cube.019
v -0.359231 17.315878 -3.012695
v 0.805511 16.592211 -3.441585
v -0.114331 18.975742 -1.894991
v 0.836206 17.200989 -2.000422
vn -0.5527 -0.5931 0.5854
vt 0.125000 0.500000
vt 0.375000 0.500000
vt 0.375000 0.750000
vt 0.125000 0.750000
s 0
usemtl Material.001
f 170/73/73 172/74/73 171/75/73 169/76/73
o Cube.020
v -1.217027 17.323122 -1.673871
v -1.924039 16.773464 -2.797381
v -0.006374 18.907904 -1.969123
v -0.460864 17.267532 -3.049405
vn 0.6166 -0.6964 0.3671
vt 0.125000 0.500000
vt 0.375000 0.500000
vt 0.375000 0.750000
vt 0.125000 0.750000
s 0
usemtl Material.001
f 174/77/74 176/78/74 175/79/74 173/80/74
