# Blender 4.0.2
# www.blender.org
mtllib axe.mtl
o Cube
v 1.000000 2.340867 -1.000000
v 1.000000 -1.000000 -1.000000
v 1.000000 1.000000 1.000000
v 1.000000 -1.000000 1.000000
v 0.000000 -1.000000 -1.000000
v 0.000000 1.000000 1.000000
v 0.000000 -1.000000 1.000000
v 0.000000 2.340867 -1.000000
v 1.000000 2.340867 -1.605368
v 1.000000 -1.000000 -1.605368
v 0.000000 2.340867 -4.008090
v 0.000000 -1.000000 -4.008090
v 0.000000 2.340867 -4.839575
v 0.000000 -1.000000 -4.839575
v 0.000000 2.340867 -4.688090
v 0.000000 -1.000000 -4.688090
v 0.000000 -1.000000 0.701987
v 0.000000 -1.000000 1.000000
v 0.701987 -1.000000 0.701987
v 1.000000 -1.000000 1.000000
v 0.701987 -1.000000 -0.701987
v 1.000000 -1.000000 -1.000000
v 0.000000 -1.000000 -1.000000
v 0.000000 -1.000000 -0.701987
v 0.000000 -12.211924 0.701987
v 0.701987 -12.211924 0.701987
v 0.701987 -12.211924 -0.701987
v 0.000000 -12.211924 -0.701987
v 0.000000 2.783206 0.710191
v 0.000000 2.783206 -0.710191
v 0.710191 2.783206 0.710191
v 0.710191 2.783206 -0.710191
v 1.000000 2.340867 -1.000000
v 0.710191 2.340867 -0.710191
v 0.710191 2.340867 0.710191
v 1.000000 2.340867 1.000000
v 0.000000 2.340867 -0.710191
v 0.000000 2.340867 -1.000000
v 0.000000 2.340867 1.000000
v 0.000000 2.340867 0.710191
v -1.000000 2.340867 -1.000000
v -1.000000 -1.000000 -1.000000
v -1.000000 1.000000 1.000000
v -1.000000 -1.000000 1.000000
v -1.000000 2.340867 -1.605368
v -1.000000 -1.000000 -1.605368
v -0.701987 -1.000000 0.701987
v -1.000000 -1.000000 1.000000
v -0.701987 -1.000000 -0.701987
v -1.000000 -1.000000 -1.000000
v -0.701987 -12.211924 0.701987
v -0.701987 -12.211924 -0.701987
v -0.710191 2.783206 0.710191
v -0.710191 2.783206 -0.710191
v -1.000000 2.340867 -1.000000
v -0.710191 2.340867 -0.710191
v -0.710191 2.340867 0.710191
v -1.000000 2.340867 1.000000
vn -0.0000 1.0000 -0.0000
vn 1.0000 -0.0000 -0.0000
vn -0.0000 -0.0000 1.0000
vn -0.0000 -1.0000 -0.0000
vn -1.0000 -0.0000 -0.0000
vn 0.9554 -0.0000 -0.2954
vn -0.0000 -0.0000 -1.0000
vn -0.9554 -0.0000 -0.2954
vt 0.794091 0.357582
vt 0.715846 0.182750
vt 0.475632 0.182750
vt 0.572042 0.039123
vt 0.715845 0.039123
vt 0.475632 0.540290
vt 0.547533 0.540290
vt 0.547533 0.583817
vt 0.475632 0.756577
vt 0.847828 0.636700
vt 0.775926 0.636700
vt 0.775926 0.540290
vt 0.847828 0.540290
vt 0.775926 0.780504
vt 0.847828 0.780504
vt 0.475632 0.816362
vt 0.475632 0.805470
vt 0.715846 0.226223
vt 0.475632 0.226223
vt 0.625779 0.540290
vt 0.697681 0.540290
vt 0.697681 0.756577
vt 0.625779 0.583817
vt 0.794091 0.279337
vt 0.794091 0.039123
vt 0.804983 0.039123
vt 0.804983 0.279337
vt 0.697681 0.805470
vt 0.697681 0.816362
vt 0.715846 0.462044
vt 0.475632 0.462044
vt 0.218192 0.039123
vt 0.279409 0.039123
vt 0.279409 0.845278
vt 0.218192 0.845278
vt 0.955130 0.060550
vt 0.904656 0.060550
vt 0.883229 0.039123
vt 0.955130 0.039123
vt 0.904656 0.161498
vt 0.883229 0.182926
vt 0.955130 0.161498
vt 0.955130 0.182926
vt 0.955710 0.959697
vt 0.905236 0.959697
vt 0.905236 0.858749
vt 0.955710 0.858749
vt 0.039123 0.039123
vt 0.139947 0.039123
vt 0.139947 0.845278
vt 0.039123 0.845278
vt 0.346912 0.039123
vt 0.407152 0.039123
vt 0.407152 0.845278
vt 0.346912 0.845278
vt 0.794091 0.435828
vt 0.507437 0.894607
vt 0.507437 0.945671
vt 0.475632 0.945671
vt 0.475632 0.894607
vt 0.826990 0.960877
vt 0.775926 0.960877
vt 0.775926 0.858749
vt 0.826990 0.858749
vt 0.934293 0.384137
vt 0.934293 0.282009
vt 0.955130 0.261172
vt 0.955130 0.404975
vt 0.883229 0.384137
vt 0.883229 0.404975
vt 0.883229 0.282009
vt 0.883229 0.261172
vt 0.475632 0.039123
vt 0.617487 0.894607
vt 0.617487 0.945671
vt 0.585682 0.945671
vt 0.585682 0.894607
vt 0.957879 0.540290
vt 0.957879 0.642292
vt 0.926074 0.642292
vt 0.926074 0.540290
s 0
usemtl Material
f 5/1/1 2/1/1 22/1/1 23/1/1
f 2/2/2 1/3/2 3/4/2 4/5/2
f 8/6/1 1/7/1 9/8/1 11/9/1
f 6/10/3 3/11/3 36/12/3 39/13/3
f 4/14/3 3/11/3 6/10/3 7/15/3
f 11/9/1 9/8/1 13/16/1 15/17/1
f 1/3/2 2/2/2 10/18/2 9/19/2
f 2/20/4 5/21/4 12/22/4 10/23/4
f 16/24/5 15/25/5 13/26/5 14/27/5
f 10/23/4 12/22/4 16/28/4 14/29/4
f 9/19/6 10/18/6 14/30/6 13/31/6
f 2/1/1 4/1/1 20/1/1 22/1/1
f 19/32/3 17/33/3 25/34/3 26/35/3
f 17/36/4 19/37/4 20/38/4 18/39/4
f 19/37/4 21/40/4 22/41/4 20/38/4
f 21/40/4 24/42/4 23/43/4 22/41/4
f 4/1/1 7/1/1 18/1/1 20/1/1
f 28/44/4 27/45/4 26/46/4 25/47/4
f 21/48/2 19/49/2 26/50/2 27/51/2
f 24/52/7 21/53/7 27/54/7 28/55/7
f 1/56/1 8/56/1 38/56/1 33/56/1
f 40/57/3 35/58/3 31/59/3 29/60/3
f 32/61/1 30/62/1 29/63/1 31/64/1
f 34/65/1 35/66/1 36/67/1 33/68/1
f 37/69/1 34/65/1 33/68/1 38/70/1
f 35/66/1 40/71/1 39/72/1 36/67/1
f 3/4/2 1/3/2 33/3/2 36/73/2
f 34/74/7 37/75/7 30/76/7 32/77/7
f 35/78/2 34/79/2 32/80/2 31/81/2
f 5/1/1 23/1/1 50/1/1 42/1/1
f 42/2/5 44/5/5 43/4/5 41/3/5
f 8/6/1 11/9/1 45/8/1 41/7/1
f 6/10/3 39/13/3 58/12/3 43/11/3
f 44/14/3 7/15/3 6/10/3 43/11/3
f 11/9/1 15/17/1 13/16/1 45/8/1
f 41/3/5 45/19/5 46/18/5 42/2/5
f 42/20/4 46/23/4 12/22/4 5/21/4
f 46/23/4 14/29/4 16/28/4 12/22/4
f 45/19/8 13/31/8 14/30/8 46/18/8
f 42/1/1 50/1/1 48/1/1 44/1/1
f 47/32/3 51/35/3 25/34/3 17/33/3
f 17/36/4 18/39/4 48/38/4 47/37/4
f 47/37/4 48/38/4 50/41/4 49/40/4
f 49/40/4 50/41/4 23/43/4 24/42/4
f 44/1/1 48/1/1 18/1/1 7/1/1
f 28/44/4 25/47/4 51/46/4 52/45/4
f 49/48/5 52/51/5 51/50/5 47/49/5
f 24/52/7 28/55/7 52/54/7 49/53/7
f 41/56/1 55/56/1 38/56/1 8/56/1
f 40/57/3 29/60/3 53/59/3 57/58/3
f 54/61/1 53/64/1 29/63/1 30/62/1
f 56/65/1 55/68/1 58/67/1 57/66/1
f 37/69/1 38/70/1 55/68/1 56/65/1
f 57/66/1 58/67/1 39/72/1 40/71/1
f 43/4/5 58/73/5 55/3/5 41/3/5
f 56/74/7 54/77/7 30/76/7 37/75/7
f 57/78/5 53/81/5 54/80/5 56/79/5
