# Blender 5.2.1 LTS
# www.blender.org
mtllib pulaski.mtl
o Cube.001
v 0.418348 28.501616 15.253572
v 0.388446 25.750156 7.968104
v 0.662414 23.558426 7.968087
v 0.661132 22.312601 7.968098
v 0.330770 20.010286 7.968108
v -1.413336 8.956237 2.885930
v 4.362129 43.017700 14.156916
v -0.359048 43.555893 14.157103
v 0.418348 28.112244 16.328804
v 0.388448 25.750156 16.328806
v 0.662416 23.558426 16.328787
v 0.661134 22.312601 16.328798
v 0.330772 20.010286 16.328810
v -1.412457 8.956237 16.328815
v 4.362129 43.017700 14.605465
v -0.359048 43.555893 14.605650
v -1.412599 43.555893 14.156902
v -1.412570 43.555893 14.605452
v -1.412520 28.337606 15.372187
v -1.412599 43.429775 14.153324
v -1.412457 28.112244 16.328440
v -1.412570 43.275402 14.605236
v -1.412457 28.112244 16.328720
v -1.412457 25.750156 16.328720
v -1.412457 23.558426 16.328720
v -1.412457 22.312601 16.328720
v -1.412457 20.010286 16.328720
v -1.412457 10.913137 16.328613
v -1.413004 20.740623 7.968073
v -1.413336 10.344741 2.885781
v -1.413004 25.750156 7.968044
v -1.413004 23.558426 7.968044
v -1.413004 22.312601 7.968044
v -1.413004 20.010286 7.968044
v -1.412570 43.555893 14.605433
v -1.412570 43.555893 14.605165
v -3.243403 28.501616 15.253811
v -3.214454 25.750156 7.968340
v -3.488421 23.558426 7.968358
v -3.487139 22.312601 7.968369
v -3.156777 20.010286 7.968336
v -7.187327 43.017700 14.157671
v -2.466151 43.555893 14.157240
v -3.243263 28.112244 16.329042
v -3.213362 25.750156 16.329041
v -3.487330 23.558426 16.329058
v -3.486048 22.312601 16.329069
v -3.155686 20.010286 16.329037
v -7.187269 43.017700 14.606220
v -2.466092 43.555893 14.605787
vn 0.9923 0.1240 -0.0000
vn 0.9620 -0.2644 -0.0676
vn 0.9878 -0.1558 -0.0000
vn 1.0000 -0.0010 -0.0000
vn 0.9999 -0.0110 -0.0005
vn 0.1133 0.9936 -0.0000
vn 0.9899 -0.1420 -0.0000
vn -0.0000 1.0000 -0.0000
vn -0.0000 0.9355 -0.3533
vn -0.0175 -0.0756 -0.9970
vn 0.0038 0.1134 0.9935
vn -0.0002 -0.0000 1.0000
vn -0.0000 -0.0000 1.0000
vn 0.4337 0.3568 -0.8274
vn -0.0000 -0.0000 -1.0000
vn -0.0000 -1.0000 -0.0000
vn -0.0001 -0.0011 1.0000
vn 0.0016 0.0168 -0.9999
vn -0.1053 0.9388 -0.3281
vn -0.9923 0.1240 0.0001
vn -0.9621 -0.2644 -0.0674
vn -0.9878 -0.1558 0.0001
vn -1.0000 -0.0010 0.0001
vn -0.9999 -0.0110 -0.0003
vn -0.1133 0.9936 -0.0000
vn -0.9899 -0.1420 0.0001
vn -0.0001 0.9355 -0.3533
vn 0.0174 -0.0756 -0.9970
vn -0.0036 0.1134 0.9935
vn 0.0003 -0.0000 1.0000
vn 0.0002 -0.0000 1.0000
vn -0.4338 0.3568 -0.8274
vn -0.0002 -0.0000 -1.0000
vn 0.0002 -0.0011 1.0000
vn -0.0017 0.0168 -0.9999
vn 0.1053 0.9388 -0.3281
vt 0.000000 0.000000
s 0
usemtl Material.001
f 3/1/1 2/1/1 10/1/1 11/1/1
f 1/1/2 7/1/2 15/1/2 9/1/2
f 6/1/3 5/1/3 13/1/3 14/1/3
f 4/1/4 3/1/4 11/1/4 12/1/4
f 2/1/5 1/1/5 9/1/5 10/1/5
f 7/1/6 8/1/6 16/1/6 15/1/6
f 5/1/7 4/1/7 12/1/7 13/1/7
f 16/1/8 8/1/8 17/1/8 18/1/8
f 2/1/9 31/1/9 1/1/9
f 7/1/10 1/1/10 19/1/10 20/1/10
f 9/1/11 15/1/11 22/1/11 21/1/11
f 14/1/12 13/1/12 27/1/12 28/1/12
f 12/1/13 11/1/13 25/1/13 26/1/13
f 10/1/13 9/1/13 23/1/13 24/1/13
f 13/1/13 12/1/13 26/1/13 27/1/13
f 11/1/13 10/1/13 24/1/13 25/1/13
f 5/1/14 6/1/14 30/1/14 29/1/14
f 4/1/15 5/1/15 34/1/15 33/1/15
f 3/1/15 4/1/15 33/1/15 32/1/15
f 2/1/15 3/1/15 32/1/15 31/1/15
f 16/1/16 18/1/16 36/1/16 35/1/16
f 16/1/17 35/1/17 22/1/17 15/1/17
f 7/1/18 20/1/18 17/1/18 8/1/18
f 31/1/19 19/1/19 1/1/19
f 39/1/20 46/1/20 45/1/20 38/1/20
f 37/1/21 44/1/21 49/1/21 42/1/21
f 6/1/22 14/1/22 48/1/22 41/1/22
f 40/1/23 47/1/23 46/1/23 39/1/23
f 38/1/24 45/1/24 44/1/24 37/1/24
f 42/1/25 49/1/25 50/1/25 43/1/25
f 41/1/26 48/1/26 47/1/26 40/1/26
f 50/1/8 18/1/8 17/1/8 43/1/8
f 38/1/27 37/1/27 31/1/27
f 42/1/28 20/1/28 19/1/28 37/1/28
f 44/1/29 21/1/29 22/1/29 49/1/29
f 14/1/30 28/1/30 27/1/30 48/1/30
f 47/1/31 26/1/31 25/1/31 46/1/31
f 45/1/31 24/1/31 23/1/31 44/1/31
f 48/1/31 27/1/31 26/1/31 47/1/31
f 46/1/31 25/1/31 24/1/31 45/1/31
f 41/1/32 29/1/32 30/1/32 6/1/32
f 40/1/33 33/1/33 34/1/33 41/1/33
f 39/1/33 32/1/33 33/1/33 40/1/33
f 38/1/33 31/1/33 32/1/33 39/1/33
f 50/1/16 35/1/16 36/1/16 18/1/16
f 50/1/34 49/1/34 22/1/34 35/1/34
f 42/1/35 43/1/35 17/1/35 20/1/35
f 31/1/36 37/1/36 19/1/36
o Cylinder
v -1.416240 20.097214 8.238935
v -1.416240 20.110369 4.758961
v -0.611240 20.312912 8.239752
v -0.611240 20.326065 4.759776
v -0.021939 20.902208 8.241979
v -0.021939 20.915363 4.762004
v 0.193760 23.792212 8.245022
v 0.193760 23.805367 4.765047
v -0.021939 24.597206 8.248065
v -0.021939 24.610359 4.768090
v -0.611240 25.186502 8.250293
v -0.611240 25.884346 4.770318
v -1.416240 25.402199 8.251108
v -1.416240 26.100044 4.771133
v -2.221240 25.186502 8.250293
v -2.221240 25.884346 4.770318
v -2.810541 24.597206 8.248065
v -2.810541 24.610359 4.768090
v -3.026240 23.792212 8.245022
v -3.026240 23.805367 4.765047
v -2.810541 20.902208 8.241979
v -2.810541 20.915363 4.762004
v -2.221240 20.312912 8.239752
v -2.221240 20.326065 4.759776
v -0.722747 20.549860 -0.903190
v -1.416239 20.364040 -0.903892
v -0.215076 21.057528 -0.901270
v -0.029255 23.547211 -0.898650
v -0.215076 24.240698 -0.896029
v -0.722747 24.605503 -0.894109
v -1.416239 24.791323 -0.893406
v -2.109731 24.605503 -0.894109
v -2.617403 24.240698 -0.896029
v -2.803224 23.547211 -0.898650
v -2.617403 21.057528 -0.901270
v -2.109731 20.549860 -0.903190
v -2.221240 25.202923 3.211100
v -2.810541 24.613625 3.208872
v -1.416240 25.418619 3.211915
v -0.611240 25.202923 3.211100
v -0.021939 24.613625 3.208872
v 0.193760 23.808632 3.205829
v -2.221240 20.329330 3.200558
v -1.416240 20.113632 3.199743
v -0.611240 20.329330 3.200558
v -0.021939 20.918627 3.202786
v -2.810541 20.918627 3.202786
v -3.026240 23.808632 3.205829
v -0.722747 20.383644 -10.181787
v -1.416239 20.197826 -10.182488
v -0.215076 20.891314 -10.179868
v -0.029255 23.380997 -10.177247
v -0.215076 24.074482 -10.174624
v -0.722747 24.439289 -10.172708
v -1.416239 24.625109 -10.172006
v -2.109731 24.439289 -10.172708
v -2.617403 24.074482 -10.174624
v -2.803224 23.380997 -10.177247
v -2.617403 20.891314 -10.179868
v -2.109731 20.383644 -10.181787
v -0.544682 18.962790 -42.483330
v -1.416240 17.925634 -42.484207
v 0.093343 21.283113 -42.480915
v 0.326876 24.412066 -42.477623
v 0.093343 25.283615 -42.474327
v -0.544682 25.742092 -42.471916
v -1.416240 25.975624 -42.471031
v -2.287798 25.742092 -42.471916
v -2.925822 25.283615 -42.474327
v -3.159356 24.412066 -42.477623
v -2.925822 21.283113 -42.480915
v -2.287798 18.962790 -42.483330
v -0.029255 23.728344 -27.265839
v -0.215076 21.238661 -27.268459
v -2.617403 21.238661 -27.268459
v -2.803224 23.728344 -27.265839
v -2.109731 24.786636 -27.261299
v -1.416239 24.972454 -27.260597
v -0.215076 24.421831 -27.263218
v -2.109731 20.730991 -27.270378
v -0.722747 20.730991 -27.270378
v -1.416239 20.545174 -27.271084
v -2.617403 24.421831 -27.263218
v -0.722747 24.786636 -27.261299
v 0.093343 21.283113 -41.690830
v -3.159356 24.412066 -41.687538
v -1.416240 25.975624 -41.680950
v -1.416240 20.411562 -41.694126
v 0.326876 24.412066 -41.687538
v -2.925822 21.283113 -41.690830
v -2.287798 25.742092 -41.681835
v 0.093343 25.283615 -41.684242
v -2.287798 20.645094 -41.693245
v -0.544682 20.645094 -41.693245
v -2.925822 25.283615 -41.684242
v -0.544682 25.742092 -41.681835
v -0.029255 24.420372 -33.829525
v -0.029255 24.171026 -30.808537
v -2.617403 21.930689 -33.832146
v -2.617403 21.681343 -30.811157
v -2.109731 25.478666 -33.824982
v -2.109731 25.229319 -30.803997
v -0.215076 25.113859 -33.826904
v -0.215076 24.864513 -30.805916
v -2.109731 21.423021 -33.834064
v -2.109731 21.173676 -30.813076
v -0.722747 21.423021 -33.834064
v -0.722747 21.173676 -30.813076
v -2.617403 25.113859 -33.826904
v -2.617403 24.864513 -30.805916
v -0.722747 25.478666 -33.824982
v -0.722747 25.229319 -30.803997
v -0.215076 21.681343 -30.811157
v -0.215076 21.930689 -33.832146
v -2.803224 24.171026 -30.808537
v -2.803224 24.420372 -33.829525
v -1.416239 25.415138 -30.803295
v -1.416239 25.664484 -33.824280
v -1.416239 20.987856 -30.813778
v -1.416239 21.237202 -33.834766
v -0.153105 21.798977 -35.737717
v -2.874781 24.417109 -35.734959
v -1.416239 25.725407 -35.729450
v -1.416239 21.069712 -35.740471
v 0.042303 24.417109 -35.734959
v -2.679374 21.798977 -35.737717
v -2.145510 25.530003 -35.730190
v -0.153105 25.146374 -35.732204
v -2.145510 21.265118 -35.739735
v -0.686968 21.265118 -35.739735
v -2.679374 25.146374 -35.732204
v -0.686968 25.530003 -35.730190
v -0.544682 18.962790 -44.458031
v -1.416240 18.729258 -44.458912
v 0.093343 21.283113 -46.554474
v 0.326876 24.412066 -47.176846
v 0.093343 25.283617 -47.467575
v -0.544682 26.575575 -47.465164
v -1.416240 26.809107 -47.464283
v -2.287798 26.575575 -47.465164
v -2.925822 25.283617 -47.467575
v -3.159356 24.412066 -47.176846
v -2.925822 21.283113 -46.554474
v -2.287798 18.962790 -44.458031
v -0.544682 25.742092 -43.573368
v 0.093343 25.283617 -43.575779
v -1.416240 17.925634 -43.291641
v -2.287798 18.962788 -43.584778
v 0.093343 21.283113 -43.582367
v -0.544682 18.962788 -43.584778
v -3.159356 24.412066 -43.579075
v -2.925822 25.283617 -43.575779
v -1.416240 25.975622 -43.572483
v 0.326876 24.412066 -43.579075
v -2.925822 21.283113 -43.582367
v -2.287798 25.742092 -43.573368
v 0.009061 21.482582 -38.828060
v -3.062034 24.436838 -38.824944
v -1.416240 25.913101 -38.818726
v -1.416240 20.659691 -38.831169
v 0.229555 24.436838 -38.824944
v -2.841540 21.482582 -38.828060
v -2.239137 25.692608 -38.819561
v 0.009061 25.259731 -38.821835
v -2.239137 20.880184 -38.830338
v -0.593342 20.880184 -38.830338
v -2.841540 25.259731 -38.821835
v -0.593342 25.692608 -38.819561
v -1.416240 20.085012 14.066537
v -0.611240 20.300709 14.067352
v -0.021939 20.890007 14.069580
v 0.193760 23.780010 14.072623
v -0.021939 24.585003 14.075666
v -0.611240 25.174301 14.077894
v -1.416240 25.389997 14.078709
v -2.221240 25.174301 14.077894
v -2.810541 24.585003 14.075666
v -3.026240 23.780010 14.072623
v -2.810541 20.890007 14.069580
v -2.221240 20.300709 14.067352
v -1.416239 20.075788 17.312294
v -0.611239 20.291487 17.313108
v -0.021938 20.880783 17.315336
v 0.193761 23.770786 17.318380
v -0.021938 24.575781 17.321423
v -0.611239 25.165077 17.323650
v -1.416239 25.380775 17.324467
v -2.221239 25.165077 17.323650
v -2.810540 24.575781 17.321423
v -3.026239 23.770786 17.318380
v -2.810540 20.880783 17.315336
v -2.221239 20.291487 17.313108
vn 0.2588 -0.9659 -0.0037
vn 0.7071 -0.7071 -0.0027
vn 0.9972 -0.0744 -0.0003
vn 0.9659 0.2588 0.0010
vn 0.8439 0.5337 0.0545
vn 0.2543 0.9483 0.1902
vn -0.2543 0.9483 0.1902
vn -0.8439 0.5337 0.0545
vn -0.9659 0.2588 0.0010
vn -0.9972 -0.0744 -0.0003
vn -0.6518 0.7499 -0.1128
vn -0.7071 -0.7071 -0.0027
vn -0.2588 -0.9659 -0.0037
vn -0.9659 0.2588 0.0005
vn -0.2559 0.9556 -0.1460
vn 0.2559 0.9556 -0.1460
vn 0.6518 0.7499 -0.1128
vn 0.9636 0.2584 -0.0688
vn -0.2584 -0.9642 -0.0588
vn 0.2584 -0.9642 -0.0588
vn 0.9960 -0.0743 -0.0494
vn -0.7061 -0.7058 -0.0571
vn 0.7061 -0.7058 -0.0571
vn -0.9960 -0.0743 -0.0494
vn -0.9636 0.2585 -0.0688
vn -0.9972 -0.0744 -0.0002
vn 0.7071 -0.7071 -0.0015
vn -0.7071 -0.7071 -0.0015
vn 0.9972 -0.0744 -0.0002
vn 0.2588 -0.9659 -0.0020
vn -0.2588 -0.9659 -0.0020
vn 0.9659 0.2588 0.0005
vn 0.8393 0.5312 -0.1155
vn 0.2381 0.8900 -0.3889
vn -0.2381 0.8900 -0.3889
vn -0.8393 0.5312 -0.1155
vn -0.2588 0.9658 -0.0173
vn 0.9659 0.2588 -0.0046
vn -0.7070 -0.7071 0.0127
vn 0.2588 -0.9658 0.0173
vn -0.5835 0.8120 -0.0145
vn 0.5835 0.8120 -0.0145
vn -0.2588 -0.9658 0.0173
vn 0.7070 -0.7071 0.0127
vn -0.9659 0.2588 -0.0046
vn 0.2588 0.9658 -0.0173
vn 0.9972 -0.0744 0.0013
vn -0.9972 -0.0744 0.0013
vn 0.9972 -0.0744 -0.0000
vn -0.9972 -0.0744 -0.0000
vn -0.2588 0.9659 -0.0000
vn 0.9659 0.2588 -0.0000
vn -0.8457 -0.3654 0.3890
vn 0.2493 -0.3433 0.9055
vn -0.5835 0.8121 -0.0000
vn 0.5835 0.8121 -0.0000
vn -0.2493 -0.3433 0.9055
vn 0.8457 -0.3654 0.3890
vn -0.9659 0.2588 -0.0000
vn 0.2588 0.9659 -0.0000
vn 0.2588 0.9657 0.0196
vn -0.9659 0.2588 0.0053
vn 0.7071 -0.7070 -0.0144
vn -0.2588 -0.9657 -0.0196
vn 0.5835 0.8119 0.0165
vn -0.5835 0.8119 0.0165
vn 0.2588 -0.9657 -0.0196
vn -0.7071 -0.7070 -0.0144
vn 0.9659 0.2588 0.0053
vn -0.2588 0.9657 0.0196
vn -0.9972 -0.0744 -0.0015
vn 0.9972 -0.0744 -0.0015
vn 0.2588 0.9657 0.0211
vn -0.9655 0.2586 0.0306
vn 0.7052 -0.7055 0.0699
vn -0.2578 -0.9626 0.0834
vn 0.5834 0.8118 0.0240
vn -0.5834 0.8118 0.0240
vn 0.2578 -0.9626 0.0834
vn -0.7052 -0.7055 0.0699
vn 0.9655 0.2586 0.0306
vn -0.2588 0.9657 0.0211
vn -0.9966 -0.0744 0.0345
vn 0.9966 -0.0744 0.0345
vn 0.9972 -0.0744 -0.0093
vn 0.9972 -0.0744 -0.0061
vn -0.9972 -0.0744 -0.0093
vn -0.9972 -0.0744 -0.0061
vn -0.2571 0.9589 0.1198
vn -0.2581 0.9629 0.0795
vn 0.9655 0.2586 0.0323
vn 0.9657 0.2587 0.0214
vn -0.7045 -0.7042 -0.0880
vn -0.7060 -0.7058 -0.0583
vn 0.2571 -0.9589 -0.1198
vn 0.2581 -0.9629 -0.0795
vn -0.5808 0.8077 0.1009
vn -0.5824 0.8101 0.0669
vn 0.5808 0.8077 0.1009
vn 0.5824 0.8101 0.0669
vn -0.2571 -0.9589 -0.1198
vn -0.2581 -0.9629 -0.0795
vn 0.7045 -0.7042 -0.0880
vn 0.7060 -0.7058 -0.0583
vn -0.9655 0.2586 0.0323
vn -0.9657 0.2587 0.0214
vn 0.2571 0.9589 0.1198
vn 0.2581 0.9629 0.0795
vn 0.9965 -0.0744 0.0376
vn -0.9965 -0.0744 0.0376
vn -0.2587 0.9655 0.0309
vn 0.9653 0.2585 0.0358
vn -0.7051 -0.7054 0.0717
vn 0.2578 -0.9625 0.0846
vn -0.5833 0.8116 0.0328
vn 0.5833 0.8116 0.0328
vn -0.2578 -0.9625 0.0846
vn 0.7051 -0.7054 0.0717
vn -0.9653 0.2585 0.0358
vn 0.2587 0.9655 0.0309
vn 0.8066 0.5878 0.0629
vn -0.5250 -0.7919 -0.3119
vn 0.9642 -0.2651 -0.0000
vn 0.2536 0.9458 0.2026
vn -0.2536 0.9458 0.2026
vn -0.9642 -0.2651 -0.0000
vn 0.5250 -0.7919 -0.3119
vn -0.8066 0.5878 0.0629
vn 0.7656 -0.6433 -0.0000
vn -0.7656 -0.6433 -0.0000
vn 0.9954 -0.0744 0.0598
vn -0.9954 -0.0744 0.0598
vn -0.2584 0.9643 0.0586
vn 0.9642 0.2581 0.0601
vn -0.7027 -0.7031 0.1089
vn 0.2566 -0.9581 0.1271
vn -0.5826 0.8105 0.0603
vn 0.5826 0.8105 0.0603
vn -0.2566 -0.9581 0.1271
vn 0.7027 -0.7031 0.1089
vn -0.9642 0.2581 0.0601
vn 0.2584 0.9643 0.0586
vn -0.0000 -0.6569 -0.7540
vn -0.0000 -0.1951 -0.9808
vn -0.0000 -0.3164 -0.9486
vn -0.0000 0.0020 -1.0000
vn -0.7071 0.7071 0.0015
vn -0.2588 0.9659 0.0020
vn 0.2588 0.9659 0.0020
vn 0.7071 0.7071 0.0015
vn -0.0000 -0.0021 1.0000
vn -0.2588 0.9659 0.0027
vn 0.9659 0.2588 0.0007
vn -0.7071 -0.7071 -0.0020
vn 0.2588 -0.9659 -0.0027
vn -0.7071 0.7071 0.0020
vn 0.7071 0.7071 0.0020
vn -0.2588 -0.9659 -0.0027
vn 0.7071 -0.7071 -0.0020
vn -0.9659 0.2588 0.0007
vn 0.2588 0.9659 0.0027
vt 1.000000 0.500000
vt 1.000000 1.000000
vt 0.916667 1.000000
vt 0.916667 0.500000
vt 0.833333 1.000000
vt 0.833333 0.500000
vt 0.750000 1.000000
vt 0.750000 0.500000
vt 0.666667 1.000000
vt 0.666667 0.500000
vt 0.583333 1.000000
vt 0.583333 0.500000
vt 0.500000 1.000000
vt 0.500000 0.500000
vt 0.416667 1.000000
vt 0.416667 0.500000
vt 0.333333 1.000000
vt 0.333333 0.500000
vt 0.250000 1.000000
vt 0.250000 0.500000
vt 0.166667 1.000000
vt 0.166667 0.500000
vt 0.333333 1.000000
vt 0.416667 1.000000
vt 0.083333 1.000000
vt 0.083333 0.500000
vt 0.000000 1.000000
vt 0.000000 0.500000
vt 0.666667 1.000000
vt 0.750000 1.000000
vt 0.083333 1.000000
vt 0.833333 1.000000
vt 0.166667 1.000000
vt 0.750000 1.000000
vt 0.416667 1.000000
vt 0.083333 1.000000
vt 0.916667 1.000000
vt 0.583333 1.000000
vt 0.000000 1.000000
vt 1.000000 1.000000
vt 0.750000 1.000000
vt 0.250000 1.000000
vt 0.333333 1.000000
vt 0.916667 1.000000
vt 0.083333 1.000000
vt 0.750000 1.000000
vt 0.833333 1.000000
vt 0.750000 1.000000
vt 0.750000 1.000000
vt 0.166667 1.000000
vt 0.416667 1.000000
vt 0.500000 1.000000
vt 0.083333 1.000000
vt 1.000000 1.000000
vt 0.916667 1.000000
vt 0.583333 1.000000
vt 0.000000 1.000000
vt 0.000000 1.000000
vt 0.666667 1.000000
vt 0.083333 1.000000
vt 0.583333 1.000000
vt 0.250000 1.000000
vt 0.750000 0.490000
vt 0.870000 0.457846
vt 0.957846 0.370000
vt 0.990000 0.250000
vt 0.957846 0.130000
vt 0.870000 0.042154
vt 0.750000 0.010000
vt 0.630000 0.042154
vt 0.542154 0.130000
vt 0.510000 0.250000
vt 0.542154 0.370000
vt 0.630000 0.457846
s 0
f 51/2/37 52/3/37 54/4/37 53/5/37
f 53/5/38 54/4/38 56/6/38 55/7/38
f 55/7/39 56/6/39 58/8/39 57/9/39
f 57/9/40 58/8/40 60/10/40 59/11/40
f 59/11/41 60/10/41 62/12/41 61/13/41
f 61/13/42 62/12/42 64/14/42 63/15/42
f 63/15/43 64/14/43 66/16/43 65/17/43
f 65/17/44 66/16/44 68/18/44 67/19/44
f 67/19/45 68/18/45 70/20/45 69/21/45
f 69/21/46 70/20/46 72/22/46 71/23/46
f 88/24/47 87/25/47 82/16/47 83/18/47
f 71/23/48 72/22/48 74/26/48 73/27/48
f 73/27/49 74/26/49 52/28/49 51/29/49
f 67/19/50 69/21/50 228/21/50 227/19/50
f 87/25/51 89/14/51 81/14/51 82/16/51
f 89/14/52 90/12/52 80/12/52 81/14/52
f 90/12/53 91/30/53 79/10/53 80/12/53
f 91/30/54 92/31/54 78/8/54 79/10/54
f 94/28/55 93/32/55 86/26/55 76/28/55
f 95/4/56 94/3/56 76/3/56 75/4/56
f 92/31/57 96/33/57 77/6/57 78/8/57
f 93/32/58 97/34/58 85/22/58 86/26/58
f 96/33/59 95/4/59 75/4/59 77/6/59
f 97/34/60 98/20/60 84/20/60 85/22/60
f 98/20/61 88/24/61 83/18/61 84/20/61
f 70/20/50 68/18/50 88/24/50 98/20/50
f 72/22/62 70/20/62 98/20/62 97/34/62
f 56/6/63 54/4/63 95/4/63 96/33/63
f 74/26/64 72/22/64 97/34/64 93/32/64
f 58/8/65 56/6/65 96/33/65 92/31/65
f 54/4/66 52/3/66 94/3/66 95/4/66
f 52/28/67 74/26/67 93/32/67 94/28/67
f 60/10/68 58/8/68 92/31/68 91/30/68
f 62/12/69 60/10/69 91/30/69 90/12/69
f 64/14/70 62/12/70 90/12/70 89/14/70
f 66/16/71 64/14/71 89/14/71 87/25/71
f 68/18/72 66/16/72 87/25/72 88/24/72
f 82/16/73 81/14/73 105/14/73 106/16/73
f 79/10/74 78/8/74 102/8/74 103/10/74
f 86/26/75 85/22/75 109/22/75 110/26/75
f 75/4/76 76/3/76 100/3/76 99/4/76
f 83/18/77 82/16/77 106/16/77 107/18/77
f 80/12/78 79/10/78 103/10/78 104/12/78
f 76/28/79 86/26/79 110/26/79 100/28/79
f 77/6/80 75/4/80 99/4/80 101/6/80
f 84/20/81 83/18/81 107/18/81 108/20/81
f 81/14/82 80/12/82 104/12/82 105/14/82
f 78/8/83 77/6/83 101/6/83 102/8/83
f 85/22/84 84/20/84 108/20/84 109/22/84
f 139/35/85 135/6/85 113/6/85 114/8/85
f 140/22/86 136/20/86 120/20/86 121/22/86
f 141/36/87 137/14/87 117/14/87 118/16/87
f 142/10/88 139/35/88 114/8/88 115/10/88
f 143/37/89 140/22/89 121/22/89 122/26/89
f 144/38/90 138/3/90 112/3/90 111/4/90
f 145/18/91 141/36/91 118/16/91 119/18/91
f 146/39/92 142/10/92 115/10/92 116/12/92
f 138/28/93 143/37/93 122/26/93 112/28/93
f 135/6/94 144/38/94 111/4/94 113/6/94
f 136/20/95 145/18/95 119/18/95 120/20/95
f 137/14/96 146/39/96 116/12/96 117/14/96
f 105/14/97 104/12/97 134/12/97 128/14/97
f 108/20/98 107/18/98 133/18/98 126/20/98
f 101/6/99 99/4/99 131/4/99 124/6/99
f 100/28/100 110/26/100 130/26/100 132/40/100
f 104/12/101 103/10/101 129/10/101 134/12/101
f 107/18/102 106/16/102 127/36/102 133/18/102
f 99/4/103 100/3/103 132/41/103 131/4/103
f 110/26/104 109/22/104 125/22/104 130/26/104
f 103/10/105 102/8/105 123/42/105 129/10/105
f 106/16/106 105/14/106 128/14/106 127/36/106
f 109/22/107 108/20/107 126/20/107 125/22/107
f 102/8/108 101/6/108 124/6/108 123/42/108
f 209/14/109 218/39/109 146/39/109 137/14/109
f 208/43/110 217/44/110 145/18/110 136/20/110
f 207/6/111 216/45/111 144/38/111 135/6/111
f 210/28/112 215/46/112 143/37/112 138/28/112
f 218/39/113 214/10/113 142/10/113 146/39/113
f 217/44/114 213/36/114 141/36/114 145/18/114
f 216/45/115 210/3/115 138/3/115 144/38/115
f 215/46/116 212/22/116 140/22/116 143/37/116
f 214/10/117 211/47/117 139/35/117 142/10/117
f 213/36/118 209/14/118 137/14/118 141/36/118
f 212/22/119 208/43/119 136/20/119 140/22/119
f 211/47/120 207/6/120 135/6/120 139/35/120
f 123/42/121 124/6/121 163/48/121 148/49/121
f 148/49/122 163/48/122 164/6/122 147/50/122
f 125/22/123 126/20/123 165/20/123 150/51/123
f 150/51/124 165/20/124 166/20/124 149/22/124
f 127/36/125 128/14/125 167/14/125 152/52/125
f 152/52/126 167/14/126 168/53/126 151/52/126
f 129/10/127 123/42/127 148/49/127 154/10/127
f 154/10/128 148/49/128 147/50/128 153/10/128
f 130/26/129 125/22/129 150/51/129 156/54/129
f 156/54/130 150/51/130 149/22/130 155/32/130
f 131/4/131 132/41/131 169/55/131 158/38/131
f 158/38/132 169/55/132 170/41/132 157/56/132
f 133/18/133 127/36/133 152/52/133 160/18/133
f 160/18/134 152/52/134 151/52/134 159/18/134
f 134/12/135 129/10/135 154/10/135 162/39/135
f 162/39/136 154/10/136 153/10/136 161/57/136
f 132/40/137 130/26/137 156/54/137 169/58/137
f 169/58/138 156/54/138 155/32/138 170/59/138
f 124/6/139 131/4/139 158/38/139 163/48/139
f 163/48/140 158/38/140 157/56/140 164/6/140
f 126/20/141 133/18/141 160/18/141 165/20/141
f 165/20/142 160/18/142 159/18/142 166/20/142
f 128/14/143 134/12/143 162/39/143 167/14/143
f 167/14/144 162/39/144 161/57/144 168/53/144
f 147/50/145 164/6/145 171/6/145 175/49/145
f 149/22/146 166/20/146 172/43/146 176/22/146
f 151/52/147 168/53/147 173/14/147 177/36/147
f 153/10/148 147/50/148 175/49/148 178/60/148
f 155/32/149 149/22/149 176/22/149 179/61/149
f 157/56/150 170/41/150 174/41/150 180/45/150
f 159/18/151 151/52/151 177/36/151 181/18/151
f 161/57/152 153/10/152 178/60/152 182/39/152
f 170/59/153 155/32/153 179/61/153 174/40/153
f 164/6/154 157/56/154 180/45/154 171/6/154
f 166/20/155 159/18/155 181/18/155 172/43/155
f 168/53/156 161/57/156 182/39/156 173/14/156
f 195/62/157 196/10/157 187/10/157 188/12/157
f 197/28/158 198/26/158 194/26/158 184/28/158
f 199/6/159 200/4/159 183/4/159 185/6/159
f 201/63/95 202/18/95 191/18/95 192/20/95
f 203/53/160 195/62/160 188/12/160 189/14/160
f 204/49/85 199/6/85 185/6/85 186/8/85
f 205/22/86 201/63/86 192/20/86 193/22/86
f 206/16/161 203/53/161 189/14/161 190/16/161
f 196/10/88 204/49/88 186/8/88 187/10/88
f 198/26/162 205/22/162 193/22/162 194/26/162
f 200/4/163 197/3/163 184/3/163 183/4/163
f 202/18/164 206/16/164 190/16/164 191/18/164
f 119/18/91 118/16/91 206/16/91 202/18/91
f 111/4/165 112/3/165 197/3/165 200/4/165
f 122/26/162 121/22/162 205/22/162 198/26/162
f 115/10/88 114/8/88 204/49/88 196/10/88
f 118/16/87 117/14/87 203/53/87 206/16/87
f 121/22/86 120/20/86 201/63/86 205/22/86
f 114/8/85 113/6/85 199/6/85 204/49/85
f 117/14/96 116/12/96 195/62/96 203/53/96
f 120/20/95 119/18/95 202/18/95 201/63/95
f 113/6/159 111/4/159 200/4/159 199/6/159
f 112/28/166 122/26/166 198/26/166 197/28/166
f 116/12/92 115/10/92 196/10/92 195/62/92
f 175/49/167 171/6/167 207/6/167 211/47/167
f 176/22/168 172/43/168 208/43/168 212/22/168
f 177/36/169 173/14/169 209/14/169 213/36/169
f 178/60/170 175/49/170 211/47/170 214/10/170
f 179/61/171 176/22/171 212/22/171 215/46/171
f 180/45/172 174/41/172 210/3/172 216/45/172
f 181/18/173 177/36/173 213/36/173 217/44/173
f 182/39/174 178/60/174 214/10/174 218/39/174
f 174/40/175 179/61/175 215/46/175 210/28/175
f 171/6/176 180/45/176 216/45/176 207/6/176
f 172/43/177 181/18/177 217/44/177 208/43/177
f 173/14/178 182/39/178 218/39/178 209/14/178
f 183/4/179 184/28/179 194/26/179 193/22/179 185/6/179
f 186/8/180 185/6/180 193/22/180 192/20/180
f 187/10/181 186/8/181 192/20/181 191/18/181
f 188/12/182 187/10/182 191/18/182 190/16/182 189/14/182
f 221/7/65 222/9/65 234/9/65 233/7/65
f 65/17/183 67/19/183 227/19/183 226/17/183
f 63/15/184 65/17/184 226/17/184 225/15/184
f 61/13/185 63/15/185 225/15/185 224/13/185
f 59/11/186 61/13/186 224/13/186 223/11/186
f 57/9/68 59/11/68 223/11/68 222/9/68
f 73/27/67 51/29/67 219/29/67 230/27/67
f 51/2/66 53/5/66 220/5/66 219/2/66
f 55/7/65 57/9/65 222/9/65 221/7/65
f 71/23/64 73/27/64 230/27/64 229/23/64
f 53/5/63 55/7/63 221/7/63 220/5/63
f 69/21/62 71/23/62 229/23/62 228/21/62
f 231/64/187 232/65/187 233/66/187 234/67/187 235/68/187 236/69/187 237/70/187 238/71/187 239/72/187 240/73/187 241/74/187 242/75/187
f 228/21/62 229/23/62 241/23/62 240/21/62
f 225/15/188 226/17/188 238/17/188 237/15/188
f 222/9/189 223/11/189 235/11/189 234/9/189
f 229/23/190 230/27/190 242/27/190 241/23/190
f 219/2/191 220/5/191 232/5/191 231/2/191
f 226/17/192 227/19/192 239/19/192 238/17/192
f 223/11/193 224/13/193 236/13/193 235/11/193
f 230/27/194 219/29/194 231/29/194 242/27/194
f 220/5/195 221/7/195 233/7/195 232/5/195
f 227/19/196 228/21/196 240/21/196 239/19/196
f 224/13/197 225/15/197 237/15/197 236/13/197
